<?xml version="1.0" encoding="utf-8"?>
<!-- Generator: Adobe Illustrator 25.3.0, SVG Export Plug-In . SVG Version: 6.00 Build 0)  -->
<svg version="1.1" id="Layer_1" xmlns="http://www.w3.org/2000/svg" xmlns:xlink="http://www.w3.org/1999/xlink" x="0px" y="0px"
	 viewBox="0 0 252 108" style="enable-background:new 0 0 252 108;" xml:space="preserve">
<style type="text/css">
	.st0{fill:#00A3E1;}
	.st1{fill:#FFFFFF;}
	.st2{fill:#212322;}
</style>
<path d="M27.7,53.2L55.8,37v21.4L34,70.9l12.1,7v21.4L18.1,83.1V61.7l9.6,5.6V53.2z M27.7,24.9v21.4l28.1-16.2V8.7L27.7,24.9z
	 M119.3,37v6.8H95.7v11.5H118v6.8H95.7v18.3h-8.1V37H119.3z M132.4,37v43.4h-7.7V37H132.4z M155.6,81.4c-10.2,0-16.9-7.4-16.9-17
	c0-9.7,6.7-17,16.9-17c10.2,0,16.9,7.4,16.9,17C172.5,74,165.8,81.4,155.6,81.4z M155.6,75.2c6.4,0,9.2-5.6,9.2-10.8
	s-2.7-10.8-9.2-10.8c-6.4,0-9.2,5.6-9.2,10.8S149.2,75.2,155.6,75.2z M192.6,47.3c5.3,0,9.5,1.4,12,4.3c1.6,1.9,2.4,4.3,2.4,7.5
	v21.4h-7.7v-3.7c-1.8,2.5-4.8,4.6-10.7,4.6c-6.5,0-11.9-3.4-11.9-10.5c0-6.2,4.7-9.5,12.2-10.2l10.4-0.9V59c0-3.7-1.7-5.9-6.7-5.9
	c-4,0-6,1.3-6.4,3.7h-7.9C179.2,51,184.1,47.3,192.6,47.3z M199.3,66.5v-1.2l-10.1,0.9c-2.9,0.2-4.8,1.9-4.8,4.6
	c0,3.2,2.2,4.6,5.5,4.6C195,75.5,199.3,72.4,199.3,66.5z M209.8,54.4v-6.2h7.7v-7.4h7.7v7.4h8.7v6.2h-8.7v17.4
	c0,1.9,0.6,2.7,2.5,2.7h6.2v6h-8.1c-6,0-8.3-2.7-8.3-8.7V54.4H209.8z"/>
</svg>
